<?xml version="1.0" encoding="UTF-8" standalone="no"?>
<svg
   xmlns:dc="http://purl.org/dc/elements/1.1/"
   xmlns:cc="http://creativecommons.org/ns#"
   xmlns:rdf="http://www.w3.org/1999/02/22-rdf-syntax-ns#"
   xmlns:svg="http://www.w3.org/2000/svg"
   xmlns="http://www.w3.org/2000/svg"
   xmlns:sodipodi="http://sodipodi.sourceforge.net/DTD/sodipodi-0.dtd"
   xmlns:inkscape="http://www.inkscape.org/namespaces/inkscape"
   id="Capa_1"
   enable-background="new 0 0 512 512"
   height="399.022"
   viewBox="0 0 512 399.022"
   width="512"
   version="1.1"
   sodipodi:docname="card.svg"
   inkscape:version="1.0.2 (e86c870879, 2021-01-15)">
  <metadata
     id="metadata897">
    <rdf:RDF>
      <cc:Work
         rdf:about="">
        <dc:format>image/svg+xml</dc:format>
        <dc:type
           rdf:resource="http://purl.org/dc/dcmitype/StillImage" />
        <dc:title></dc:title>
      </cc:Work>
    </rdf:RDF>
  </metadata>
  <defs
     id="defs895" />
  <sodipodi:namedview
     pagecolor="#ffffff"
     bordercolor="#666666"
     borderopacity="1"
     objecttolerance="10"
     gridtolerance="10"
     guidetolerance="10"
     inkscape:pageopacity="0"
     inkscape:pageshadow="2"
     inkscape:window-width="1920"
     inkscape:window-height="1018"
     id="namedview893"
     showgrid="false"
     inkscape:zoom="0.94726562"
     inkscape:cx="261"
     inkscape:cy="204.511"
     inkscape:window-x="0"
     inkscape:window-y="36"
     inkscape:window-maximized="1"
     inkscape:current-layer="Capa_1"
     inkscape:document-rotation="0" />
  <g
     id="g890"
     transform="translate(0,-56.489)"
     style="fill:#ffffff;fill-opacity:1">
    <path
       d="M 470.335,56.489 H 90.131 c -22.975,0 -41.665,18.714 -41.665,41.717 v 6.828 H 41.665 C 18.69,105.034 0,123.748 0,146.751 v 267.043 c 0,23.002 18.69,41.717 41.665,41.717 h 380.204 c 22.975,0 41.665,-18.714 41.665,-41.717 v -6.828 h 6.801 C 493.31,406.966 512,388.252 512,365.249 V 98.206 C 512,75.204 493.31,56.489 470.335,56.489 Z m -428.67,68.545 h 380.204 c 11.946,0 21.665,9.742 21.665,21.717 v 26.045 H 20 v -26.045 c 0,-11.975 9.719,-21.717 21.665,-21.717 z M 20,192.795 h 423.534 v 42.118 H 20 Z M 421.869,435.511 H 41.665 C 29.719,435.511 20,425.769 20,413.794 v -158.88 h 423.534 v 158.88 c 0,11.975 -9.719,21.717 -21.665,21.717 z M 492,365.25 c 0,11.975 -9.719,21.717 -21.665,21.717 h -6.801 V 146.751 c 0,-23.003 -18.69,-41.717 -41.665,-41.717 H 68.466 v -6.828 c 0,-11.975 9.719,-21.717 21.665,-21.717 h 380.204 c 11.946,0 21.665,9.742 21.665,21.717 z"
       id="path884"
       style="fill:#ffffff;fill-opacity:1" />
    <path
       d="M 167.632,298.444 H 65.926 c -5.522,0 -10,4.477 -10,10 v 76.742 c 0,5.523 4.478,10 10,10 h 101.706 c 5.522,0 10,-4.477 10,-10 v -76.742 c 0,-5.523 -4.478,-10 -10,-10 z m -10,76.741 H 75.926 v -56.742 h 81.706 z"
       id="path886"
       style="fill:#ffffff;fill-opacity:1" />
    <path
       d="m 355.604,294.769 c -28.676,0 -52.005,23.348 -52.005,52.046 0,28.698 23.329,52.046 52.005,52.046 28.676,0 52.005,-23.348 52.005,-52.046 -10e-4,-28.699 -23.33,-52.046 -52.005,-52.046 z m 0,84.092 c -17.647,0 -32.005,-14.376 -32.005,-32.046 0,-17.67 14.357,-32.046 32.005,-32.046 17.648,0 32.005,14.376 32.005,32.046 -10e-4,17.67 -14.358,32.046 -32.005,32.046 z"
       id="path888"
       style="fill:#ffffff;fill-opacity:1" />
  </g>
</svg>
