<?xml version="1.0" encoding="UTF-8" standalone="no"?>
<svg
   xmlns:dc="http://purl.org/dc/elements/1.1/"
   xmlns:cc="http://creativecommons.org/ns#"
   xmlns:rdf="http://www.w3.org/1999/02/22-rdf-syntax-ns#"
   xmlns:svg="http://www.w3.org/2000/svg"
   xmlns="http://www.w3.org/2000/svg"
   xmlns:sodipodi="http://sodipodi.sourceforge.net/DTD/sodipodi-0.dtd"
   xmlns:inkscape="http://www.inkscape.org/namespaces/inkscape"
   id="Layer_1"
   enable-background="new 0 0 512 512"
   height="512"
   viewBox="0 0 512 512"
   width="512"
   version="1.1"
   sodipodi:docname="dollar.svg"
   inkscape:version="1.0.1 (3bc2e813f5, 2020-09-07, custom)">
  <metadata
     id="metadata1195">
    <rdf:RDF>
      <cc:Work
         rdf:about="">
        <dc:format>image/svg+xml</dc:format>
        <dc:type
           rdf:resource="http://purl.org/dc/dcmitype/StillImage" />
      </cc:Work>
    </rdf:RDF>
  </metadata>
  <defs
     id="defs1193" />
  <sodipodi:namedview
     pagecolor="#ffffff"
     bordercolor="#666666"
     borderopacity="1"
     objecttolerance="10"
     gridtolerance="10"
     guidetolerance="10"
     inkscape:pageopacity="0"
     inkscape:pageshadow="2"
     inkscape:window-width="1920"
     inkscape:window-height="1018"
     id="namedview1191"
     showgrid="false"
     inkscape:zoom="0.45605469"
     inkscape:cx="78.492949"
     inkscape:cy="285.9341"
     inkscape:window-x="0"
     inkscape:window-y="36"
     inkscape:window-maximized="1"
     inkscape:current-layer="Layer_1" />
  <g
     id="g1188"
     style="fill:#f6ebf9;fill-opacity:1">
    <path
       d="m256 512c-68.38 0-132.668-26.628-181.02-74.98s-74.98-112.64-74.98-181.02 26.629-132.667 74.98-181.02 112.64-74.98 181.02-74.98 132.668 26.628 181.02 74.98 74.98 112.64 74.98 181.02-26.629 132.667-74.98 181.02-112.64 74.98-181.02 74.98zm0-480c-123.514 0-224 100.486-224 224s100.486 224 224 224 224-100.486 224-224-100.486-224-224-224z"
       id="path1184"
       style="fill:#f6ebf9;fill-opacity:1" />
    <path
       d="m256 240c-22.056 0-40-17.944-40-40s17.944-40 40-40 40 17.944 40 40c0 8.836 7.163 16 16 16s16-7.164 16-16c0-34.201-23.978-62.888-56-70.186v-17.814c0-8.836-7.163-16-16-16s-16 7.164-16 16v17.814c-32.022 7.298-56 35.985-56 70.186 0 39.701 32.299 72 72 72 22.056 0 40 17.944 40 40s-17.944 40-40 40-40-17.944-40-40c0-8.836-7.163-16-16-16s-16 7.164-16 16c0 34.201 23.978 62.888 56 70.186v17.814c0 8.836 7.163 16 16 16s16-7.164 16-16v-17.814c32.022-7.298 56-35.985 56-70.186 0-39.701-32.299-72-72-72z"
       id="path1186"
       style="fill:#f6ebf9;fill-opacity:1" />
  </g>
</svg>
