<?xml version="1.0" encoding="UTF-8" standalone="no"?>
<svg
   xmlns:dc="http://purl.org/dc/elements/1.1/"
   xmlns:cc="http://creativecommons.org/ns#"
   xmlns:rdf="http://www.w3.org/1999/02/22-rdf-syntax-ns#"
   xmlns:svg="http://www.w3.org/2000/svg"
   xmlns="http://www.w3.org/2000/svg"
   xmlns:sodipodi="http://sodipodi.sourceforge.net/DTD/sodipodi-0.dtd"
   xmlns:inkscape="http://www.inkscape.org/namespaces/inkscape"
   version="1.1"
   id="Layer_1"
   x="0px"
   y="0px"
   viewBox="0 0 94.758 94.758"
   xml:space="preserve"
   sodipodi:docname="instagram_small.svg"
   width="94.758003"
   height="94.758003"
   inkscape:version="1.0.2 (e86c870879, 2021-01-15)"><metadata
   id="metadata1253"><rdf:RDF><cc:Work
       rdf:about=""><dc:format>image/svg+xml</dc:format><dc:type
         rdf:resource="http://purl.org/dc/dcmitype/StillImage" /><dc:title /></cc:Work></rdf:RDF></metadata><defs
   id="defs1251" /><sodipodi:namedview
   pagecolor="#ffffff"
   bordercolor="#666666"
   borderopacity="1"
   objecttolerance="10"
   gridtolerance="10"
   guidetolerance="10"
   inkscape:pageopacity="0"
   inkscape:pageshadow="2"
   inkscape:window-width="1920"
   inkscape:window-height="1018"
   id="namedview1249"
   showgrid="false"
   inkscape:zoom="1.6878454"
   inkscape:cx="72.464592"
   inkscape:cy="-88.706651"
   inkscape:window-x="0"
   inkscape:window-y="36"
   inkscape:window-maximized="1"
   inkscape:current-layer="g1216"
   inkscape:document-rotation="0" />
<g
   id="g1216"
   transform="translate(2.5,2.5)">
	<path
   style="fill:#6a453b;fill-opacity:0;stroke:#ffffff;stroke-width:5;stroke-miterlimit:4;stroke-dasharray:none;stroke-opacity:1"
   d="M 58.255,23.88 H 31.503 c -4.27,0 -7.744,3.474 -7.744,7.744 v 26.752 c 0,4.27 3.474,7.745 7.744,7.745 h 26.752 c 4.27,0 7.745,-3.474 7.745,-7.745 V 31.624 C 66,27.354 62.526,23.88 58.255,23.88 Z M 44.879,58.906 c -7.667,0 -13.905,-6.238 -13.905,-13.906 0,-7.667 6.238,-13.905 13.905,-13.905 7.668,0 13.906,6.238 13.906,13.905 0,7.667 -6.239,13.906 -13.906,13.906 z M 59.232,33.97 c -1.815,0 -3.291,-1.476 -3.291,-3.29 0,-1.814 1.476,-3.29 3.291,-3.29 1.814,0 3.29,1.476 3.29,3.29 0,1.814 -1.476,3.29 -3.29,3.29 z"
   id="path1210" />
	<path
   style="fill:#6a453b;fill-opacity:0;stroke:#ffffff;stroke-width:5;stroke-miterlimit:4;stroke-dasharray:none;stroke-opacity:1"
   d="m 44.879,36.971 c -4.426,0 -8.03,3.602 -8.03,8.028 0,4.428 3.604,8.031 8.03,8.031 4.428,0 8.029,-3.603 8.029,-8.031 0,-4.425 -3.602,-8.028 -8.029,-8.028 z"
   id="path1212" />
	<path
   style="fill:#6a453b;fill-opacity:0;stroke:#ffffff;stroke-width:5;stroke-miterlimit:4;stroke-dasharray:none;stroke-opacity:1"
   d="M 44.879,0 C 20.094,0 0,20.094 0,44.879 0,69.664 20.094,89.758 44.879,89.758 69.664,89.758 89.758,69.664 89.758,44.879 89.758,20.094 69.664,0 44.879,0 Z m 26.996,58.376 c 0,7.511 -6.109,13.62 -13.62,13.62 H 31.503 c -7.51,0 -13.62,-6.109 -13.62,-13.62 V 31.624 c 0,-7.51 6.11,-13.62 13.62,-13.62 h 26.752 c 7.511,0 13.62,6.11 13.62,13.62 z"
   id="path1214" />
</g>
<g
   id="g1218"
   transform="translate(2.5,2.5)">
</g>
<g
   id="g1220"
   transform="translate(2.5,2.5)">
</g>
<g
   id="g1222"
   transform="translate(2.5,2.5)">
</g>
<g
   id="g1224"
   transform="translate(2.5,2.5)">
</g>
<g
   id="g1226"
   transform="translate(2.5,2.5)">
</g>
<g
   id="g1228"
   transform="translate(2.5,2.5)">
</g>
<g
   id="g1230"
   transform="translate(2.5,2.5)">
</g>
<g
   id="g1232"
   transform="translate(2.5,2.5)">
</g>
<g
   id="g1234"
   transform="translate(2.5,2.5)">
</g>
<g
   id="g1236"
   transform="translate(2.5,2.5)">
</g>
<g
   id="g1238"
   transform="translate(2.5,2.5)">
</g>
<g
   id="g1240"
   transform="translate(2.5,2.5)">
</g>
<g
   id="g1242"
   transform="translate(2.5,2.5)">
</g>
<g
   id="g1244"
   transform="translate(2.5,2.5)">
</g>
<g
   id="g1246"
   transform="translate(2.5,2.5)">
</g>
</svg>
