<?xml version="1.0" encoding="UTF-8" standalone="no"?>
<svg
   xmlns:dc="http://purl.org/dc/elements/1.1/"
   xmlns:cc="http://creativecommons.org/ns#"
   xmlns:rdf="http://www.w3.org/1999/02/22-rdf-syntax-ns#"
   xmlns:svg="http://www.w3.org/2000/svg"
   xmlns="http://www.w3.org/2000/svg"
   xmlns:sodipodi="http://sodipodi.sourceforge.net/DTD/sodipodi-0.dtd"
   xmlns:inkscape="http://www.inkscape.org/namespaces/inkscape"
   id="_x31__x2C_5"
   enable-background="new 0 0 24 24"
   height="512"
   viewBox="0 0 24 24"
   width="512"
   version="1.1"
   sodipodi:docname="news.svg"
   inkscape:version="1.0.1 (3bc2e813f5, 2020-09-07, custom)">
  <metadata
     id="metadata907">
    <rdf:RDF>
      <cc:Work
         rdf:about="">
        <dc:format>image/svg+xml</dc:format>
        <dc:type
           rdf:resource="http://purl.org/dc/dcmitype/StillImage" />
      </cc:Work>
    </rdf:RDF>
  </metadata>
  <defs
     id="defs905" />
  <sodipodi:namedview
     pagecolor="#ffffff"
     bordercolor="#666666"
     borderopacity="1"
     objecttolerance="10"
     gridtolerance="10"
     guidetolerance="10"
     inkscape:pageopacity="0"
     inkscape:pageshadow="2"
     inkscape:window-width="1920"
     inkscape:window-height="1018"
     id="namedview903"
     showgrid="false"
     inkscape:zoom="0.16123968"
     inkscape:cx="334.88412"
     inkscape:cy="525.33545"
     inkscape:window-x="0"
     inkscape:window-y="36"
     inkscape:window-maximized="1"
     inkscape:current-layer="_x31__x2C_5" />
  <path
     d="m20.5 24h-16.75c-2.068 0-3.75-1.682-3.75-3.75v-17.5c0-1.517 1.233-2.75 2.75-2.75h12.5c1.517 0 2.75 1.233 2.75 2.75v.25h3.25c1.517 0 2.75 1.233 2.75 2.75v14.5c0 1.916-1.444 3.5-3.301 3.723-.063.018-.13.027-.199.027zm-2.5-19.5v15.75c0 1.241 1.009 2.25 2.25 2.25s2.25-1.009 2.25-2.25v-14.5c0-.689-.561-1.25-1.25-1.25zm-15.25-3c-.689 0-1.25.561-1.25 1.25v17.5c0 1.241 1.009 2.25 2.25 2.25h13.502c-.472-.627-.752-1.407-.752-2.25v-17.5c0-.689-.561-1.25-1.25-1.25z"
     id="path888"
     style="fill:#f6ebf9;fill-opacity:1" />
  <path
     d="m8.25 9h-4.5c-.414 0-.75-.336-.75-.75v-4.5c0-.414.336-.75.75-.75h4.5c.414 0 .75.336.75.75v4.5c0 .414-.336.75-.75.75zm-3.75-1.5h3v-3h-3z"
     id="path890"
     style="fill:#f6ebf9;fill-opacity:1" />
  <path
     d="m14.25 5.5h-2.5c-.414 0-.75-.336-.75-.75s.336-.75.75-.75h2.5c.414 0 .75.336.75.75s-.336.75-.75.75z"
     id="path892"
     style="fill:#f6ebf9;fill-opacity:1" />
  <path
     d="m14.25 8.5h-2.5c-.414 0-.75-.336-.75-.75s.336-.75.75-.75h2.5c.414 0 .75.336.75.75s-.336.75-.75.75z"
     id="path894"
     style="fill:#f6ebf9;fill-opacity:1" />
  <path
     d="m14.25 12.5h-10.5c-.414 0-.75-.336-.75-.75s.336-.75.75-.75h10.5c.414 0 .75.336.75.75s-.336.75-.75.75z"
     id="path896"
     style="fill:#f6ebf9;fill-opacity:1" />
  <path
     d="m14.25 16.25h-10.5c-.414 0-.75-.336-.75-.75s.336-.75.75-.75h10.5c.414 0 .75.336.75.75s-.336.75-.75.75z"
     id="path898"
     style="fill:#f6ebf9;fill-opacity:1" />
  <path
     d="m14.25 20h-10.5c-.414 0-.75-.336-.75-.75s.336-.75.75-.75h10.5c.414 0 .75.336.75.75s-.336.75-.75.75z"
     id="path900"
     style="fill:#f6ebf9;fill-opacity:1" />
</svg>
