<?xml version="1.0" encoding="UTF-8" standalone="no"?>
<svg
   xmlns:dc="http://purl.org/dc/elements/1.1/"
   xmlns:cc="http://creativecommons.org/ns#"
   xmlns:rdf="http://www.w3.org/1999/02/22-rdf-syntax-ns#"
   xmlns:svg="http://www.w3.org/2000/svg"
   xmlns="http://www.w3.org/2000/svg"
   xmlns:sodipodi="http://sodipodi.sourceforge.net/DTD/sodipodi-0.dtd"
   xmlns:inkscape="http://www.inkscape.org/namespaces/inkscape"
   height="405.99908pt"
   viewBox="0 -53 512.00444 405.99908"
   width="512.00079pt"
   version="1.1"
   id="svg911"
   sodipodi:docname="reading-book.svg"
   inkscape:version="1.0.1 (3bc2e813f5, 2020-09-07, custom)">
  <metadata
     id="metadata917">
    <rdf:RDF>
      <cc:Work
         rdf:about="">
        <dc:format>image/svg+xml</dc:format>
        <dc:type
           rdf:resource="http://purl.org/dc/dcmitype/StillImage" />
      </cc:Work>
    </rdf:RDF>
  </metadata>
  <defs
     id="defs915" />
  <sodipodi:namedview
     pagecolor="#ffffff"
     bordercolor="#666666"
     borderopacity="1"
     objecttolerance="10"
     gridtolerance="10"
     guidetolerance="10"
     inkscape:pageopacity="0"
     inkscape:pageshadow="2"
     inkscape:window-width="1920"
     inkscape:window-height="1018"
     id="namedview913"
     showgrid="false"
     inkscape:zoom="0.25118173"
     inkscape:cx="-49.035989"
     inkscape:cy="467.98695"
     inkscape:window-x="0"
     inkscape:window-y="36"
     inkscape:window-maximized="1"
     inkscape:current-layer="svg911" />
  <path
     d="m 189.76999,88.504046 h -84.3125 c -4.17187,0 -7.558587,3.38281 -7.558587,7.5586 0,4.171874 3.386717,7.554684 7.558587,7.554684 h 84.3125 c 4.17578,0 7.55859,-3.38281 7.55859,-7.554684 0,-4.17579 -3.38281,-7.5586 -7.55859,-7.5586 z m 0,0"
     id="path893"
     style="fill:#ffffff;fill-opacity:1" />
  <path
     d="m 189.76999,121.4103 h -84.3125 c -4.17187,0 -7.558587,3.38281 -7.558587,7.55469 0,4.17578 3.386717,7.55859 7.558587,7.55859 h 84.3125 c 4.17578,0 7.55859,-3.38281 7.55859,-7.55859 0,-4.17188 -3.38281,-7.55469 -7.55859,-7.55469 z m 0,0"
     id="path895"
     style="fill:#ffffff;fill-opacity:1" />
  <path
     d="m 189.74265,154.33999 h -54.60157 c -4.17578,0 -7.55859,3.38672 -7.55859,7.55859 0,4.17578 3.38281,7.5586 7.55859,7.5586 h 54.60157 c 4.17187,0 7.55859,-3.38672 7.55859,-7.5586 0,-4.17187 -3.38672,-7.55859 -7.55859,-7.55859 z m 0,0"
     id="path897"
     style="fill:#ffffff;fill-opacity:1" />
  <path
     d="m 415.49655,128.96499 c 0,-4.17188 -3.38281,-7.55469 -7.55859,-7.55469 h -84.3125 c -4.17188,0 -7.55859,3.38281 -7.55859,7.55469 0,4.17578 3.38671,7.55859 7.55859,7.55859 h 84.3125 c 4.17578,0 7.55859,-3.38281 7.55859,-7.55859 z m 0,0"
     id="path899"
     style="fill:#ffffff;fill-opacity:1" />
  <path
     d="m 323.62546,154.33999 c -4.17188,0 -7.55859,3.38672 -7.55859,7.55859 0,4.17578 3.38671,7.5586 7.55859,7.5586 h 54.62891 c 4.17578,0 7.55859,-3.38672 7.55859,-7.5586 0,-4.17187 -3.38281,-7.55859 -7.55859,-7.55859 z m 0,0"
     id="path901"
     style="fill:#ffffff;fill-opacity:1" />
  <path
     d="m 496.10983,291.88296 c 19.74219,-54.87891 21.07813,-98.63281 4.09375,-133.53906 -18.14062,-37.33594 -32.83984,-47.35547 -41.76171,-49.35547 V -22.492045 c 0,-9.773438 -8.26954,-17.730469 -18.9961,-18.480469 -20.78906,-5.636719 -41.4414,-9.3125 -61.40234,-10.921875 -4.16016,-0.328125 -7.80469,2.765625 -8.14063,6.925781 -0.33593,4.160156 2.76563,7.804688 6.92579,8.140625 19.28125,1.554688 39.26953,5.136719 59.41796,10.648438 0.58204,0.160156 1.17969,0.25 1.78125,0.265625 3.1211,0.08984 5.29688,1.875 5.29688,3.421875 0,0 0.008,205.195315 -0.0195,206.683595 -0.14453,-0.0937 -13.90625,-9.18359 -13.90625,-9.18359 -7.39844,-4.88281 -15.21875,-5.94922 -22.02735,-3.00781 -7.27343,3.14453 -12.58984,10.64843 -14.21875,20.07031 -2.80859,16.1289 5.01172,27.84375 12.32813,35.38281 0.0117,0.0156 0.0234,0.0312 0.0391,0.043 -42.28125,-9.16016 -83.25781,-6.9375 -122.1914,6.62891 V -27.82017 c 18.80468,-5.355469 38.25,-8.574219 57.88671,-9.558594 4.17188,-0.207031 7.38282,-3.757812 7.17188,-7.925781 -0.2071,-4.167969 -3.76179,-7.394531 -7.92585,-7.167969 -22.3711,1.117188 -44.51172,4.96875 -65.82422,11.445312 h -37.21875 c -50.34766,-15.984374 -104.28516,-15.964843 -164.824215,0.05078 -10.742188,0.742187 -19.023438,8.703125 -19.023438,18.484375 V 108.94937 c -8.886718,2.0039 -23.5625,12.05078 -41.761718,49.5 -17.007813,34.91015 -15.65625,78.69921 4.132812,133.65234 -3.035156,2.28906 -5.007812,5.91015 -5.007812,9.99219 v 38.38281 c 0,6.90234 5.617187,12.52344 12.523437,12.52344 h 88.769524 c 6.90625,0 12.52344,-5.6211 12.52344,-12.52344 v -38.21094 c 0,-7 -5.70703,-12.69531 -12.71875,-12.69531 h -3.8125 c -0.21484,-3.06641 -0.52734,-6.15235 -0.92578,-9.23828 h 297.40234 c -0.39062,3.04687 -0.6914,6.09765 -0.90234,9.125 h -4.01172 c -6.90625,0 -12.52344,5.62109 -12.52344,12.52734 v 38.66016 c 0,6.75 5.50391,12.24219 12.26953,12.24219 h 89.27735 c 6.76562,0 12.26953,-5.49219 12.26953,-12.24219 v -38.94531 c 0,-4.01954 -1.95703,-7.58204 -4.96485,-9.81641 z M 25.406715,165.05874 c 12.449219,-25.61719 22.675781,-36.23047 28.164062,-39.84766 v 54.48438 c -0.01953,9.61719 -0.03125,17.21484 6.398438,20.67578 6.542969,3.51953 13.960938,-1.39453 17.519531,-3.75 l 13.460938,-8.89062 c 2.109375,-1.39844 5.160156,-2.83594 7.679687,-1.7461 2.507809,1.08203 4.601559,4.52735 5.335929,8.78906 2.12891,12.22266 -5.882804,20.76563 -14.859366,28.17969 -7.703125,6.35938 -10.347657,10.35156 -7.976563,18.73438 0.04297,0.27343 0.101563,0.54687 0.179688,0.82031 0.117187,0.41797 0.277344,0.8164 0.457031,1.19531 0.449219,1.30078 0.992187,2.69531 1.648437,4.21875 5.0625,11.83594 8.53125,26.94922 9.65625,41.64844 H 31.102027 C 11.871559,237.42202 10.01609,196.6564 25.406715,165.05874 Z m 84.230465,139.62891 v 33.19531 H 26.055153 v -33 c 0.511718,-0.0117 1.027343,-0.0664 1.542968,-0.1836 0.0039,0 0.08984,-0.0117 0.292969,-0.0117 z M 228.68405,265.2189 H 104.64109 c -1.55469,-6.92578 -3.53516,-13.57422 -5.867187,-19.625 44.703117,-11.07422 88.332027,-9.5625 129.910147,4.51172 z m 39.53125,0 h -24.41406 v -12.48438 l 24.41406,-0.10937 z m 0,-27.70704 -24.41406,0.10547 V 123.12515 c 0,-4.17578 -3.38672,-7.5586 -7.55859,-7.5586 -4.17578,0 -7.5625,3.38672 -7.5625,7.5586 v 111.07421 c -39.63282,-12.50781 -80.92188,-14.40234 -123.11719,-5.65625 7.57031,-7.48437 16.23047,-19.51171 13.29687,-36.35156 -1.6289,-9.43359 -6.95312,-16.9375 -14.23828,-20.08203 -6.812491,-2.94141 -14.628897,-1.87109 -22.007804,3.01172 l -13.46875,8.89453 c -0.152343,0.10156 -0.296875,0.19531 -0.4375,0.28516 -0.02734,-1.48438 -0.02344,-3.10547 -0.02344,-4.57813 l 0.0039,-60.51953 c 0,-0.20312 -0.01563,-0.40234 -0.02734,-0.59766 0.01172,-0.16796 0.02734,-0.33203 0.02734,-0.5039 V -22.492045 c 0,-1.546875 2.175781,-3.332031 5.296875,-3.421875 0.585937,-0.01563 1.167969,-0.101563 1.730469,-0.25 56.30078,-15.007813 106.40625,-15.582032 152.96485,-1.726563 V 88.668106 c 0,4.17579 3.38281,7.5586 7.55859,7.5586 4.17578,0 7.55859,-3.38672 7.55859,-7.5586 V -25.910014 H 268.2114 V 237.51186 Z m 15.11719,27.70704 v -15.01954 c 41.60938,-15.73437 84.30469,-17.46093 130.11719,-5.24609 -2.44141,6.21094 -4.49219,13.09375 -6.09766,20.26563 z m 202.625,72.55078 h -83.58203 v -33.19531 h 81.74609 c 0.1836,0 0.28516,0.0117 0.27735,0.008 0.51953,0.12109 1.04297,0.17578 1.55859,0.18359 z m -5.04297,-48.3125 h -61.96875 c 1.125,-14.70313 4.58985,-29.80078 9.65235,-41.61328 0.72656,-1.69141 1.3164,-3.22657 1.78906,-4.64453 0.14844,-0.3086 0.28125,-0.625 0.38672,-0.96094 0.71484,-2.25391 0.98828,-4.21485 0.95312,-5.97266 0,-0.0117 0,-0.0195 0,-0.0273 -0.008,-0.38672 -0.0312,-0.76172 -0.0703,-1.125 -0.0234,-0.23828 -0.0547,-0.47656 -0.0898,-0.70703 -0.0274,-0.17188 -0.0625,-0.33985 -0.0977,-0.50391 -0.0586,-0.29687 -0.12891,-0.59375 -0.21484,-0.88281 -0.0508,-0.17578 -0.11329,-0.34375 -0.16797,-0.51563 -0.0781,-0.21484 -0.14844,-0.43359 -0.23828,-0.64453 -1.49219,-3.66797 -4.64844,-6.29297 -7.91797,-9 -0.008,-0.008 -0.0117,-0.0117 -0.0195,-0.0195 -8.98047,-7.41406 -16.99219,-15.95703 -14.86329,-28.1875 0.73438,-4.25391 2.82422,-7.69922 5.32032,-8.78125 0.63281,-0.26953 1.29687,-0.38672 1.97265,-0.38281 2.02344,0.008 4.13672,1.08203 5.72657,2.13281 l 9.21875,6.08594 4.22656,2.79297 c 3.55078,2.35547 10.9414,7.25781 17.47265,3.78906 6.34375,-3.37109 6.40625,-11.14453 6.45313,-17.45313 v -3.11718 c 0,-0.0469 0.004,-0.0898 0.004,-0.13672 l -0.004,-54.34375 c 5.50781,3.58203 15.73828,14.14062 28.16797,39.71094 15.38281,31.61718 13.52734,72.38281 -5.69141,124.50781 z m 0,0"
     id="path903"
     style="fill:#ffffff;fill-opacity:1" />
  <path
     d="m 182.7153,3.0548301 h -71.05078 c -10.65234,0 -19.324211,8.6679679 -19.324211,19.3242179 v 20.65625 c 0,10.656248 8.667961,19.324218 19.324211,19.324218 h 71.05078 c 10.67188,0 19.35157,-8.66797 19.35157,-19.324218 v -20.65625 c 0,-10.65625 -8.67969,-19.3242179 -19.35157,-19.3242179 z m 4.23438,39.9804679 c 0,2.28125 -1.9375,4.210938 -4.23438,4.210938 h -71.04687 c -2.28125,0 -4.20703,-1.925781 -4.20703,-4.210938 v -20.65625 c 0,-2.28125 1.92578,-4.210937 4.20703,-4.210937 h 71.04687 c 2.29688,0 4.23438,1.925781 4.23438,4.210937 z m 0,0"
     id="path905"
     style="fill:#ffffff;fill-opacity:1" />
  <path
     d="m 421.05515,22.379048 c 0,-10.65625 -8.66797,-19.3242179 -19.32422,-19.3242179 h -71.05078 c -10.67188,0 -19.35157,8.6718749 -19.35157,19.3242179 v 20.65625 c 0,10.656248 8.67969,19.328128 19.35157,19.328128 h 71.05078 c 10.65625,0 19.32422,-8.67188 19.32422,-19.328128 z m -15.11719,20.65625 c 0,2.28125 -1.92578,4.210938 -4.20703,4.210938 h -71.05078 c -2.29297,0 -4.23438,-1.925781 -4.23438,-4.210938 v -20.65625 c 0,-2.28125 1.94141,-4.210937 4.23438,-4.210937 h 71.05078 c 2.28125,0 4.20703,1.925781 4.20703,4.210937 z m 0,0"
     id="path907"
     style="fill:#ffffff;fill-opacity:1" />
  <path
     d="m 407.93796,88.504046 h -84.30859 c -4.17578,0 -7.5586,3.38281 -7.5586,7.5586 0,4.171874 3.38281,7.554684 7.5586,7.554684 h 84.30859 c 4.17578,0 7.55859,-3.38281 7.55859,-7.554684 0,-4.17579 -3.38281,-7.5586 -7.55859,-7.5586 z m 0,0"
     id="path909"
     style="fill:#ffffff;fill-opacity:1" />
</svg>
