<?xml version="1.0" encoding="UTF-8" standalone="no"?>
<svg
   xmlns:dc="http://purl.org/dc/elements/1.1/"
   xmlns:cc="http://creativecommons.org/ns#"
   xmlns:rdf="http://www.w3.org/1999/02/22-rdf-syntax-ns#"
   xmlns:svg="http://www.w3.org/2000/svg"
   xmlns="http://www.w3.org/2000/svg"
   xmlns:sodipodi="http://sodipodi.sourceforge.net/DTD/sodipodi-0.dtd"
   xmlns:inkscape="http://www.inkscape.org/namespaces/inkscape"
   version="1.1"
   id="Capa_1"
   x="0px"
   y="0px"
   viewBox="0 0 32.486996 23.134891"
   xml:space="preserve"
   sodipodi:docname="right-arrow.svg"
   width="32.486996"
   height="23.134892"
   inkscape:version="1.0.1 (3bc2e813f5, 2020-09-07, custom)"><metadata
   id="metadata1816"><rdf:RDF><cc:Work
       rdf:about=""><dc:format>image/svg+xml</dc:format><dc:type
         rdf:resource="http://purl.org/dc/dcmitype/StillImage" /></cc:Work></rdf:RDF></metadata><defs
   id="defs1814" /><sodipodi:namedview
   pagecolor="#ffffff"
   bordercolor="#666666"
   borderopacity="1"
   objecttolerance="10"
   gridtolerance="10"
   guidetolerance="10"
   inkscape:pageopacity="0"
   inkscape:pageshadow="2"
   inkscape:window-width="1920"
   inkscape:window-height="1018"
   id="namedview1812"
   showgrid="false"
   inkscape:zoom="9.6219517"
   inkscape:cx="2.9437375"
   inkscape:cy="11.185299"
   inkscape:window-x="0"
   inkscape:window-y="36"
   inkscape:window-maximized="1"
   inkscape:current-layer="Capa_1" />
<g
   id="g2380"
   transform="translate(0.5,0.49632186)"><path
     style="fill:#ffffff;fill-opacity:1;stroke:#000000;stroke-opacity:1"
     d="m 21.205,0.333 c -0.429,-0.444 -1.143,-0.444 -1.587,0 -0.429,0.429 -0.429,1.143 0,1.571 l 8.047,8.047 H 1.111 C 0.492,9.952 0,10.444 0,11.063 0,11.682 0.492,12.19 1.111,12.19 h 26.554 l -8.047,8.032 c -0.429,0.444 -0.429,1.159 0,1.587 0.444,0.444 1.159,0.444 1.587,0 l 9.952,-9.952 c 0.444,-0.429 0.444,-1.143 0,-1.571 z"
     id="path1779" /></g>
<g
   id="g1781"
   transform="translate(0.5,-4.1776781)">
</g>
<g
   id="g1783"
   transform="translate(0.5,-4.1776781)">
</g>
<g
   id="g1785"
   transform="translate(0.5,-4.1776781)">
</g>
<g
   id="g1787"
   transform="translate(0.5,-4.1776781)">
</g>
<g
   id="g1789"
   transform="translate(0.5,-4.1776781)">
</g>
<g
   id="g1791"
   transform="translate(0.5,-4.1776781)">
</g>
<g
   id="g1793"
   transform="translate(0.5,-4.1776781)">
</g>
<g
   id="g1795"
   transform="translate(0.5,-4.1776781)">
</g>
<g
   id="g1797"
   transform="translate(0.5,-4.1776781)">
</g>
<g
   id="g1799"
   transform="translate(0.5,-4.1776781)">
</g>
<g
   id="g1801"
   transform="translate(0.5,-4.1776781)">
</g>
<g
   id="g1803"
   transform="translate(0.5,-4.1776781)">
</g>
<g
   id="g1805"
   transform="translate(0.5,-4.1776781)">
</g>
<g
   id="g1807"
   transform="translate(0.5,-4.1776781)">
</g>
<g
   id="g1809"
   transform="translate(0.5,-4.1776781)">
</g>
</svg>
