<?xml version="1.0" encoding="UTF-8" standalone="no"?>
<svg
   xmlns:dc="http://purl.org/dc/elements/1.1/"
   xmlns:cc="http://creativecommons.org/ns#"
   xmlns:rdf="http://www.w3.org/1999/02/22-rdf-syntax-ns#"
   xmlns:svg="http://www.w3.org/2000/svg"
   xmlns="http://www.w3.org/2000/svg"
   xmlns:sodipodi="http://sodipodi.sourceforge.net/DTD/sodipodi-0.dtd"
   xmlns:inkscape="http://www.inkscape.org/namespaces/inkscape"
   version="1.1"
   id="Capa_1"
   x="0px"
   y="0px"
   viewBox="0 0 512 512"
   style="enable-background:new 0 0 512 512;"
   xml:space="preserve"
   sodipodi:docname="copyright.svg"
   inkscape:version="1.0.1 (3bc2e813f5, 2020-09-07, custom)"><metadata
   id="metadata1040"><rdf:RDF><cc:Work
       rdf:about=""><dc:format>image/svg+xml</dc:format><dc:type
         rdf:resource="http://purl.org/dc/dcmitype/StillImage" /></cc:Work></rdf:RDF></metadata><defs
   id="defs1038" /><sodipodi:namedview
   pagecolor="#ffffff"
   bordercolor="#666666"
   borderopacity="1"
   objecttolerance="10"
   gridtolerance="10"
   guidetolerance="10"
   inkscape:pageopacity="0"
   inkscape:pageshadow="2"
   inkscape:window-width="1750"
   inkscape:window-height="664"
   id="namedview1036"
   showgrid="false"
   inkscape:zoom="0.45605469"
   inkscape:cx="646.86886"
   inkscape:cy="228.53469"
   inkscape:window-x="-4"
   inkscape:window-y="36"
   inkscape:window-maximized="0"
   inkscape:current-layer="g1003"
   inkscape:document-rotation="0" />
<g
   id="g997"
   style="fill:#f6ebf9;fill-opacity:1">
	<g
   id="g995"
   style="fill:#f6ebf9;fill-opacity:1">
		<path
   d="M437.02,74.981C388.668,26.629,324.38,0,256,0S123.333,26.628,74.98,74.98C26.629,123.333,0,187.62,0,256    s26.629,132.668,74.98,181.02C123.333,485.372,187.62,512,256,512s132.667-26.628,181.019-74.98    C485.372,388.667,512,324.38,512,256S485.372,123.333,437.02,74.981z M256,482C131.383,482,30,380.617,30,256S131.383,30,256,30    s226,101.383,226,226S380.617,482,256,482z"
   id="path993"
   style="fill:#f6ebf9;fill-opacity:1" />
	</g>
</g>
<g
   id="g1003">
	<g
   id="g1001"
   style="fill:#f6ebf9;fill-opacity:1">
		<path
   d="M371.793,290.457c-7.592-3.319-16.434,0.147-19.751,7.739c-16.803,38.456-54.771,63.304-96.728,63.304    c-58.173,0-105.5-47.327-105.5-105.5c0-58.173,47.327-105.5,105.5-105.5c41.715,0,79.595,24.649,96.502,62.796    c3.357,7.574,12.217,10.995,19.791,7.636c7.574-3.356,10.993-12.217,7.636-19.791c-21.711-48.988-70.356-80.641-123.928-80.641    c-74.715,0-135.5,60.785-135.5,135.5s60.785,135.5,135.5,135.5c53.881,0,102.64-31.909,124.218-81.292    C382.85,302.617,379.385,293.774,371.793,290.457z"
   id="path999"
   style="fill:#f6ebf9;fill-opacity:1" />
	</g>
</g>
<g
   id="g1005">
</g>
<g
   id="g1007">
</g>
<g
   id="g1009">
</g>
<g
   id="g1011">
</g>
<g
   id="g1013">
</g>
<g
   id="g1015">
</g>
<g
   id="g1017">
</g>
<g
   id="g1019">
</g>
<g
   id="g1021">
</g>
<g
   id="g1023">
</g>
<g
   id="g1025">
</g>
<g
   id="g1027">
</g>
<g
   id="g1029">
</g>
<g
   id="g1031">
</g>
<g
   id="g1033">
</g>
</svg>
