<?xml version="1.0" encoding="UTF-8" standalone="no"?>
<svg
   xmlns:dc="http://purl.org/dc/elements/1.1/"
   xmlns:cc="http://creativecommons.org/ns#"
   xmlns:rdf="http://www.w3.org/1999/02/22-rdf-syntax-ns#"
   xmlns:svg="http://www.w3.org/2000/svg"
   xmlns="http://www.w3.org/2000/svg"
   xmlns:sodipodi="http://sodipodi.sourceforge.net/DTD/sodipodi-0.dtd"
   xmlns:inkscape="http://www.inkscape.org/namespaces/inkscape"
   width="128mm"
   height="64mm"
   viewBox="0 0 128 64"
   version="1.1"
   id="svg1233"
   inkscape:version="1.0.1 (3bc2e813f5, 2020-09-07, custom)"
   sodipodi:docname="logo-whiet.svg">
  <defs
     id="defs1227" />
  <sodipodi:namedview
     id="base"
     pagecolor="#000000"
     bordercolor="#666666"
     borderopacity="1.0"
     inkscape:pageopacity="0"
     inkscape:pageshadow="2"
     inkscape:zoom="1.4"
     inkscape:cx="127.55986"
     inkscape:cy="83.670005"
     inkscape:document-units="mm"
     inkscape:current-layer="g1592"
     inkscape:document-rotation="0"
     showgrid="false"
     inkscape:window-width="1920"
     inkscape:window-height="1018"
     inkscape:window-x="0"
     inkscape:window-y="36"
     inkscape:window-maximized="1" />
  <metadata
     id="metadata1230">
    <rdf:RDF>
      <cc:Work
         rdf:about="">
        <dc:format>image/svg+xml</dc:format>
        <dc:type
           rdf:resource="http://purl.org/dc/dcmitype/StillImage" />
        <dc:title />
      </cc:Work>
    </rdf:RDF>
  </metadata>
  <g
     inkscape:label="Слой 1"
     inkscape:groupmode="layer"
     id="layer1"
     transform="translate(-61.421128,-177.08185)">
    <g
       id="g876">
      <g
         id="g897">
        <g
           id="g918">
          <g
             id="g1592">
            <g
               aria-label="МЫСЛИ"
               transform="scale(0.95835977,1.0434495)"
               id="text989-6"
               style="font-weight:900;font-size:13.075px;line-height:1.5;font-family:'Noto Sans';-inkscape-font-specification:'Noto Sans, Heavy';font-variant-position:sub;font-variant-caps:all-small-caps;letter-spacing:0.404556px;fill:#f6ebf9;fill-opacity:1;stroke-width:0.628982;stroke-miterlimit:4;stroke-dasharray:none;paint-order:stroke markers fill">
              <path
                 d="m 75.505809,204.57059 -1.90895,-6.72055 h -0.0523 q 0.02615,0.2615 0.0523,0.70605 0.02615,0.44455 0.0523,0.96755 0.02615,0.50992 0.02615,0.9937 v 4.05325 h -2.235825 v -9.33555 h 3.360275 l 1.948175,6.62902 h 0.0523 l 1.90895,-6.62902 h 3.360275 v 9.33555 h -2.314275 v -4.09248 q 0,-0.44455 0.01308,-0.9414 0.01308,-0.50992 0.03923,-0.95447 0.02615,-0.45763 0.03923,-0.71913 h -0.0523 l -1.8828,6.70748 z"
                 style="fill:#f6ebf9;fill-opacity:1;stroke-width:0.628982"
                 id="path949" />
              <path
                 d="m 84.487553,204.57059 v -9.33555 h 2.523475 v 3.2949 h 0.8368 q 1.791275,0 2.64115,0.79757 0.86295,0.79758 0.86295,2.07893 0,1.4644 -0.9937,2.31427 -0.9937,0.84988 -2.7719,0.84988 z m 7.518125,0 v -9.33555 h 2.53655 v 9.33555 z m -4.380125,-2.00048 q 1.2029,0 1.2029,-1.046 0,-0.48377 -0.326875,-0.7322 -0.326875,-0.2615 -0.823725,-0.2615 h -0.666825 v 2.0397 z"
                 style="fill:#f6ebf9;fill-opacity:1;stroke-width:0.628982"
                 id="path951" />
              <path
                 d="m 101.11816,197.17014 q -0.8891,0 -1.399023,0.7322 -0.509925,0.7322 -0.509925,2.0397 0,1.32057 0.509925,2.01355 0.509923,0.6799 1.542853,0.6799 0.61452,0 1.18982,-0.16998 0.58838,-0.16997 1.17675,-0.4184 v 2.13123 q -0.61452,0.27457 -1.26827,0.39225 -0.64068,0.13075 -1.37288,0.13075 -1.516698,0 -2.484248,-0.60145 -0.96755,-0.60145 -1.425175,-1.6736 -0.457625,-1.08523 -0.457625,-2.49733 0,-1.4121 0.523,-2.49732 0.523,-1.08523 1.529775,-1.69975 1.01985,-0.6276 2.471173,-0.6276 0.6799,0 1.42518,0.1569 0.74527,0.1569 1.4644,0.49685 l -0.77143,1.9874 q -0.50992,-0.24843 -1.03292,-0.40533 -0.523,-0.16997 -1.11138,-0.16997 z"
                 style="fill:#f6ebf9;fill-opacity:1;stroke-width:0.628982"
                 id="path953" />
              <path
                 d="m 113.80012,204.57059 h -2.53655 v -7.2697 h -1.7782 q -0.0523,0.523 -0.13075,1.17675 -0.0654,0.65375 -0.1569,1.34672 -0.0915,0.6799 -0.19612,1.32058 -0.1046,0.6276 -0.2092,1.0983 -0.24843,1.1506 -0.87603,1.80435 -0.61452,0.65375 -1.92202,0.65375 -0.28765,0 -0.53608,-0.0392 -0.23535,-0.0392 -0.45762,-0.1046 v -1.94817 q 0.18305,0.0523 0.32687,0.0915 0.14383,0.0392 0.30073,0.0392 0.2092,0 0.3661,-0.11768 0.16997,-0.13075 0.3138,-0.53607 0.14382,-0.40533 0.28765,-1.2552 0.0654,-0.3661 0.18305,-1.2029 0.13075,-0.8368 0.27457,-1.97433 0.1569,-1.1506 0.30073,-2.41887 h 6.44597 z"
                 style="fill:#f6ebf9;fill-opacity:1;stroke-width:0.628982"
                 id="path955" />
              <path
                 d="m 116.21822,195.23504 h 2.3535 v 4.27552 q 0,0.5753 -0.0262,1.22905 -0.0262,0.64068 -0.0785,1.05908 h 0.0523 l 3.84405,-6.56365 h 2.88957 v 9.33555 h -2.3535 v -4.04018 q 0,-0.35302 0.0131,-0.81065 0.0131,-0.4707 0.0392,-0.92832 0.0392,-0.45763 0.0654,-0.7845 h -0.0523 l -3.84405,6.56365 h -2.90265 z"
                 style="fill:#f6ebf9;fill-opacity:1;stroke-width:0.628982"
                 id="path957" />
            </g>
            <g
               aria-label="ВСЛУХ"
               transform="scale(0.96815617,1.0328912)"
               id="text997-1"
               style="font-weight:900;font-size:12.9426px;line-height:1.5;font-family:'Noto Sans';-inkscape-font-specification:'Noto Sans, Heavy';font-variant-position:sub;font-variant-caps:all-small-caps;letter-spacing:0.13825px;fill:#f6ebf9;fill-opacity:1;stroke-width:0.622618;stroke-miterlimit:4;stroke-dasharray:none;paint-order:stroke markers fill">
              <path
                 d="m 138.79917,216.52212 q 2.0061,0 2.86031,0.59536 0.85421,0.59536 0.85421,1.70842 0,0.60831 -0.22002,1.03541 -0.22002,0.41417 -0.55653,0.66007 -0.32357,0.24591 -0.67302,0.33651 v 0.0647 q 0.37534,0.0906 0.75067,0.31062 0.37534,0.22002 0.62125,0.66007 0.25885,0.42711 0.25885,1.16483 0,1.25544 -0.94481,1.98022 -0.94481,0.72479 -2.57558,0.72479 h -3.59804 v -9.24102 z m 0.0259,3.54627 q 0.62125,0 0.86716,-0.25885 0.25885,-0.25885 0.25885,-0.62124 0,-0.77656 -1.17778,-0.77656 h -0.6989 v 1.65665 z m -0.75067,1.82491 v 1.94139 h 0.8801 q 0.64713,0 0.90598,-0.27179 0.25885,-0.28474 0.25885,-0.71185 0,-0.37533 -0.25885,-0.66007 -0.25885,-0.29768 -0.95775,-0.29768 z"
                 style="letter-spacing:0.441222px;fill:#f6ebf9;fill-opacity:1;stroke-width:0.622618"
                 id="path964" />
              <path
                 d="m 148.85674,218.43763 q -0.8801,0 -1.38486,0.72478 -0.50476,0.72479 -0.50476,2.01905 0,1.3072 0.50476,1.99316 0.50476,0.67301 1.52723,0.67301 0.6083,0 1.17777,-0.16825 0.58242,-0.16825 1.16484,-0.41416 v 2.10964 q -0.6083,0.27179 -1.25543,0.38828 -0.63419,0.12942 -1.35898,0.12942 -1.50134,0 -2.45909,-0.59536 -0.95775,-0.59536 -1.41074,-1.65665 -0.453,-1.07423 -0.453,-2.47204 0,-1.3978 0.51771,-2.47203 0.5177,-1.07424 1.51428,-1.68254 1.00953,-0.62124 2.44615,-0.62124 0.67302,0 1.41075,0.15531 0.73773,0.15531 1.44957,0.49182 l -0.76361,1.96727 q -0.50477,-0.24591 -1.02247,-0.40122 -0.5177,-0.16825 -1.10012,-0.16825 z"
                 style="letter-spacing:0.441222px;fill:#f6ebf9;fill-opacity:1;stroke-width:0.622618"
                 id="path966" />
              <path
                 d="m 161.45104,225.76314 h -2.51087 v -7.19609 h -1.76019 q -0.0518,0.51771 -0.12943,1.16484 -0.0647,0.64713 -0.15531,1.33308 -0.0906,0.67302 -0.19414,1.30721 -0.10354,0.62124 -0.20708,1.08717 -0.24591,1.13895 -0.86715,1.78608 -0.6083,0.64713 -1.90256,0.64713 -0.28474,0 -0.53065,-0.0388 -0.23297,-0.0388 -0.45299,-0.10354 v -1.92845 q 0.1812,0.0518 0.32356,0.0906 0.14237,0.0388 0.29768,0.0388 0.20709,0 0.3624,-0.11648 0.16825,-0.12943 0.31062,-0.53065 0.14237,-0.40122 0.28474,-1.24249 0.0647,-0.36239 0.18119,-1.19072 0.12943,-0.82832 0.2718,-1.95433 0.15531,-1.13895 0.29768,-2.39438 h 6.3807 z"
                 style="letter-spacing:0.441222px;fill:#f6ebf9;fill-opacity:1;stroke-width:0.622618"
                 id="path968" />
              <path
                 d="m 169.04951,223.00636 q -0.41417,0.95776 -0.89304,1.60489 -0.46594,0.63418 -1.19072,0.95775 -0.72479,0.32356 -1.88962,0.32356 -0.32357,0 -0.77656,-0.0518 -0.44004,-0.0388 -0.84127,-0.14237 v -2.08375 q 0.34945,0.12942 0.76362,0.18119 0.41416,0.0518 0.73773,0.0518 0.53064,0 0.76361,-0.23296 0.24591,-0.23297 0.33651,-0.47888 l -3.01563,-6.61367 h 2.69206 l 1.13895,2.82149 q 0.0906,0.20708 0.20708,0.53064 0.12943,0.31063 0.23297,0.63419 0.11648,0.31062 0.16825,0.55653 h 0.0777 q 0.0776,-0.31062 0.20708,-0.6989 0.12943,-0.40122 0.25885,-0.75067 0.14237,-0.36239 0.19414,-0.5177 l 0.94481,-2.57558 h 2.69206 z"
                 style="letter-spacing:0.441222px;fill:#f6ebf9;fill-opacity:1;stroke-width:0.622618"
                 id="path970" />
              <path
                 d="m 181.46263,225.76314 h -2.8862 l -1.79902,-2.8862 -1.78608,2.8862 h -2.82149 l 3.0674,-4.72405 -2.8862,-4.51697 h 2.76972 l 1.66959,2.86032 1.60488,-2.86032 h 2.84738 l -2.92503,4.71111 z"
                 style="letter-spacing:0.441222px;fill:#f6ebf9;fill-opacity:1;stroke-width:0.622618"
                 id="path972" />
            </g>
            <rect
               style="fill:#000000;fill-opacity:0;stroke:#f6ebf9;stroke-width:2.71746;stroke-miterlimit:4;stroke-dasharray:none;stroke-opacity:1"
               id="rect843-8"
               width="125.28254"
               height="61.282539"
               x="62.779858"
               y="178.44058"
               inkscape:export-xdpi="96"
               inkscape:export-ydpi="96" />
            <path
               id="path855-4"
               style="fill:none;stroke:#f6ebf9;stroke-width:2.15764;stroke-linecap:round;stroke-linejoin:round;stroke-miterlimit:4;stroke-dasharray:none;stroke-opacity:1;paint-order:normal"
               d="m 68.464734,192.73467 5.695641,-7.66272 5.695641,7.66272 5.695641,-7.66272 5.69564,7.66272 5.695643,-7.66272 5.69564,7.66272 5.69564,-7.66272 5.69564,7.66272 5.69563,-7.66272 5.69566,7.66272 5.69564,-7.66272 5.69563,7.66272 5.69565,-7.66272 5.69563,7.66272 5.69564,-7.66272 5.69565,7.66272 5.69563,-7.66272 5.69564,7.66272 5.69566,-7.66272 5.69563,7.66272"
               sodipodi:nodetypes="ccccccccccccccccccccc" />
            <path
               id="path855-9-5"
               style="fill:none;stroke:#f6ebf9;stroke-width:2.15764;stroke-linecap:round;stroke-linejoin:round;stroke-miterlimit:4;stroke-dasharray:none;stroke-opacity:1;paint-order:normal"
               d="m 68.464734,232.32546 5.695641,-7.66272 5.695641,7.66272 5.695641,-7.66272 5.69564,7.66272 5.695643,-7.66272 5.69564,7.66272 5.69564,-7.66272 5.69564,7.66272 5.69563,-7.66272 5.69566,7.66272"
               sodipodi:nodetypes="ccccccccccc" />
            <path
               id="path855-7-7"
               style="fill:none;stroke:#f6ebf9;stroke-width:2.15764;stroke-linecap:round;stroke-linejoin:round;stroke-miterlimit:4;stroke-dasharray:none;stroke-opacity:1;paint-order:normal"
               d="m 182.37755,212.53011 -5.69564,-7.66273 -5.69565,7.66273 -5.69564,-7.66274 -5.69564,7.66274 -5.69564,-7.66274 -5.69564,7.66274 -5.69564,-7.66274 -5.69564,7.66274 -5.69563,-7.66274 -5.69565,7.66274"
               sodipodi:nodetypes="ccccccccccc" />
            <g
               id="g1576"
               transform="matrix(1.0065311,0,0,0.96673869,0.57724072,5.9171036)">
              <path
                 style="fill:none;stroke:#f6ebf9;stroke-width:1.09365;stroke-linecap:square;stroke-linejoin:miter;stroke-miterlimit:4;stroke-dasharray:none;stroke-opacity:1"
                 d="m 176.81032,222.83697 v 12.41799 0"
                 id="path1024-5" />
              <path
                 style="fill:none;stroke:#f6ebf9;stroke-width:0.956946;stroke-linecap:butt;stroke-linejoin:miter;stroke-miterlimit:4;stroke-dasharray:none;stroke-opacity:1"
                 d="m 176.81032,222.57276 h 1.13175"
                 id="path1030-3" />
              <path
                 style="fill:none;stroke:#f6ebf9;stroke-width:0.956946;stroke-linecap:butt;stroke-linejoin:miter;stroke-miterlimit:4;stroke-dasharray:none;stroke-opacity:1"
                 d="m 176.81032,222.57276 h -1.13173"
                 id="path1032-8" />
              <path
                 style="fill:none;stroke:#f6ebf9;stroke-width:0.956946;stroke-linecap:butt;stroke-linejoin:miter;stroke-miterlimit:4;stroke-dasharray:none;stroke-opacity:1"
                 d="m 176.81032,235.51917 h 1.13175"
                 id="path1034-8" />
              <path
                 style="fill:none;stroke:#f6ebf9;stroke-width:0.956946;stroke-linecap:butt;stroke-linejoin:miter;stroke-miterlimit:4;stroke-dasharray:none;stroke-opacity:1"
                 d="m 176.81032,235.51917 h -1.13173"
                 id="path1036-3" />
            </g>
            <text
               xml:space="preserve"
               style="font-weight:900;font-size:11.6417px;line-height:1.25;font-family:'Noto Sans';-inkscape-font-specification:'Noto Sans, Heavy';font-variant-position:sub;font-variant-caps:all-small-caps;letter-spacing:0.124354px;stroke-width:0.264583"
               x="104.146"
               y="209.90472"
               id="text962"><tspan
                 sodipodi:role="line"
                 id="tspan960"
                 x="104.146"
                 y="209.90472"
                 style="stroke-width:0.264583"></tspan></text>
          </g>
        </g>
      </g>
    </g>
  </g>
</svg>
