<?xml version="1.0" encoding="UTF-8" standalone="no"?>
<svg
   xmlns:dc="http://purl.org/dc/elements/1.1/"
   xmlns:cc="http://creativecommons.org/ns#"
   xmlns:rdf="http://www.w3.org/1999/02/22-rdf-syntax-ns#"
   xmlns:svg="http://www.w3.org/2000/svg"
   xmlns="http://www.w3.org/2000/svg"
   xmlns:sodipodi="http://sodipodi.sourceforge.net/DTD/sodipodi-0.dtd"
   xmlns:inkscape="http://www.inkscape.org/namespaces/inkscape"
   version="1.1"
   id="Capa_1"
   x="0px"
   y="0px"
   viewBox="0 0 512 512"
   style="enable-background:new 0 0 512 512;"
   xml:space="preserve"
   sodipodi:docname="mail.svg"
   inkscape:version="1.0.1 (3bc2e813f5, 2020-09-07, custom)"><metadata
   id="metadata1785"><rdf:RDF><cc:Work
       rdf:about=""><dc:format>image/svg+xml</dc:format><dc:type
         rdf:resource="http://purl.org/dc/dcmitype/StillImage" /></cc:Work></rdf:RDF></metadata><defs
   id="defs1783" /><sodipodi:namedview
   pagecolor="#ffffff"
   bordercolor="#666666"
   borderopacity="1"
   objecttolerance="10"
   gridtolerance="10"
   guidetolerance="10"
   inkscape:pageopacity="0"
   inkscape:pageshadow="2"
   inkscape:window-width="1920"
   inkscape:window-height="1018"
   id="namedview1781"
   showgrid="false"
   inkscape:zoom="0.289679"
   inkscape:cx="-1079.5848"
   inkscape:cy="-256.55283"
   inkscape:window-x="0"
   inkscape:window-y="36"
   inkscape:window-maximized="1"
   inkscape:current-layer="Capa_1" />
<g
   id="g1748"
   style="fill:#f6ebf9;fill-opacity:1">
	<g
   id="g1746"
   style="fill:#f6ebf9;fill-opacity:1">
		<path
   d="M467,76H45C20.137,76,0,96.262,0,121v270c0,24.885,20.285,45,45,45h422c24.655,0,45-20.03,45-45V121    C512,96.306,491.943,76,467,76z M460.698,106c-9.194,9.145-167.415,166.533-172.878,171.967c-8.5,8.5-19.8,13.18-31.82,13.18    s-23.32-4.681-31.848-13.208C220.478,274.284,64.003,118.634,51.302,106H460.698z M30,384.894V127.125L159.638,256.08L30,384.894z     M51.321,406l129.587-128.763l22.059,21.943c14.166,14.166,33,21.967,53.033,21.967c20.033,0,38.867-7.801,53.005-21.939    l22.087-21.971L460.679,406H51.321z M482,384.894L352.362,256.08L482,127.125V384.894z"
   id="path1744"
   style="fill:#f6ebf9;fill-opacity:1" />
	</g>
</g>
<g
   id="g1750">
</g>
<g
   id="g1752">
</g>
<g
   id="g1754">
</g>
<g
   id="g1756">
</g>
<g
   id="g1758">
</g>
<g
   id="g1760">
</g>
<g
   id="g1762">
</g>
<g
   id="g1764">
</g>
<g
   id="g1766">
</g>
<g
   id="g1768">
</g>
<g
   id="g1770">
</g>
<g
   id="g1772">
</g>
<g
   id="g1774">
</g>
<g
   id="g1776">
</g>
<g
   id="g1778">
</g>
</svg>
